<?xml version="1.0" encoding="UTF-8" standalone="no"?>
<svg
   xmlns:dc="http://purl.org/dc/elements/1.1/"
   xmlns:cc="http://creativecommons.org/ns#"
   xmlns:rdf="http://www.w3.org/1999/02/22-rdf-syntax-ns#"
   xmlns:svg="http://www.w3.org/2000/svg"
   xmlns="http://www.w3.org/2000/svg"
   id="svg8"
   xml:space="preserve"
   enable-background="new 0 0 360 360"
   viewBox="0 0 585 585"
   y="0px"
   x="0px"
   version="1.1"><metadata
     id="metadata14"><rdf:RDF><cc:Work
         rdf:about=""><dc:format>image/svg+xml</dc:format><dc:type
           rdf:resource="http://purl.org/dc/dcmitype/StillImage" /><dc:title></dc:title></cc:Work></rdf:RDF></metadata><defs
     id="defs12" /><path
     style="fill:#000000;stroke-width:2.41950059"
     id="path2"
     d="M 534.15411,117.05004 V 66.121977 H 517.59263 V 117.05246 H 476.83614 V 66.121977 h -16.44776 v 50.930483 h -18.01077 v 49.90462 c 0,24.40066 16.38002,44.69302 38.60556,51.32244 l -0.0314,193.49231 c 0,23.34093 -19.04389,42.27109 -42.51062,42.27109 -23.40625,0 -42.29771,-18.92775 -42.48885,-42.27109 V 302.72978 c 0,-39.63626 -32.15516,-71.97289 -71.94143,-71.97289 -4.87771,0 -10.20304,0.48633 -15.01784,1.4517 V 85.475554 c 0,-14.14439 -11.41521,-25.58863 -25.62009,-25.58863 H 74.932892 c -14.265374,0 -25.709617,11.44424 -25.709617,25.58863 V 488.65388 H 33.295702 v 47.62787 H 326.01415 V 488.65388 H 308.99538 V 263.21449 c 4.81481,-1.78317 9.77962,-2.93486 15.01784,-2.93486 23.55626,0 42.36062,19.04389 42.63644,42.45015 v 109.04205 c 0,39.66771 32.18904,71.88336 71.79385,71.88336 39.87578,0 72.15434,-32.21565 72.15434,-71.88336 V 218.461 c 22.55701,-6.32701 39.27334,-26.82259 39.27334,-51.5015 V 117.05488 H 534.15411 Z M 234.17475,347.4857 127.22314,483.19791 160.11142,377.28185 h -46.27295 l 52.44992,-94.56618 h 67.88878 l -50.38611,64.77245 h 50.38369 z M 276.01758,233.50545 H 81.228428 V 95.131784 H 276.01758 Z m 220.13344,-42.3582 c -13.34839,0 -24.24824,-10.83936 -24.24824,-24.19017 0,-13.38468 10.90227,-24.28695 24.24824,-24.28695 13.35564,0 24.19742,10.90227 24.19742,24.28695 0,13.34839 -10.84178,24.19017 -24.19742,24.19017 z" /></svg>